<?xml version="1.0" standalone="no"?><!DOCTYPE svg PUBLIC "-//W3C//DTD SVG 1.1//EN" "http://www.w3.org/Graphics/SVG/1.1/DTD/svg11.dtd"><svg t="1557896767168" class="icon" style="" viewBox="0 0 1024 1024" version="1.1" xmlns="http://www.w3.org/2000/svg" p-id="3549" xmlns:xlink="http://www.w3.org/1999/xlink" width="64" height="64"><defs><style type="text/css"></style></defs><path d="M404.9 341.7c-26.8 0-51.3 9.2-71.2 24.1-0.3-0.3-0.4-0.7-0.7-1.1l-55.3-55.3c-6.6-6.6-17.6-6.6-24.3 0-6.7 6.7-6.7 17.6 0 24.3l55.3 55.3c0.3 0.3 0.7 0.5 1.1 0.7-14.9 19.9-24.1 44.4-24.1 71.2 0 65.9 53.3 119.3 119.2 119.3s119.3-53.4 119.3-119.3c0-65.8-53.4-119.2-119.3-119.2z" fill="#F79633" p-id="3550"></path><path d="M252.9 1024c35.2 0 64.5-23.8 73.5-56.1h-147c9 32.3 38.3 56.1 73.5 56.1zM771.1 1024c35.2 0 64.5-23.8 73.5-56.1h-147c9 32.3 38.3 56.1 73.5 56.1z" fill="#54A8B9" p-id="3551"></path><path d="M867.5 0h-711C96.8 0 47.9 48.9 47.9 108.6v711.1c0 59.6 48.7 108.4 108.3 108.5h711.3c59.7 0 108.6-48.8 108.6-108.6v-711C976.1 48.9 927.2 0 867.5 0zM404.9 704.4c-134.5 0-243.4-109-243.4-243.5 0-134.4 108.9-243.4 243.4-243.4s243.4 109 243.4 243.4c0.1 134.5-108.8 243.5-243.4 243.5zM828.3 408L842 621.8c0 23.4-18.9 42.4-42.3 42.4s-42.3-19-42.3-42.4L771 409.5c-22.1-10.4-37.6-32.7-37.6-58.7 0-35.8 29.1-64.9 64.9-64.9s64.9 29.1 64.9 64.9c-0.1 24.9-14.3 46.3-34.9 57.2z" fill="#626262" p-id="3552"></path><path d="M532.2 357.3l22.1-22.1c6.6-6.6 6.7-17.4 0-24-6.7-6.7-17.4-6.7-24.1 0l-22 22.1c-6.6 6.6-6.7 17.4-0.1 24 6.7 6.7 17.5 6.6 24.1 0zM256.9 461.4c0-9.4-7.7-17-17-17h-31.2c-9.3 0-17 7.5-17 17 0 9.4 7.7 17 17 17h31.2c9.3 0 17-7.6 17-17z m147.2 147.2c-9.4 0-17 7.7-17 17v31.2c0 9.3 7.6 17.1 17 17.1s17-7.7 17-17.1v-31.2c-0.1-9.4-7.6-17-17-17z m147.1-147.2c0 9.4 7.7 17 17 17h31.2c9.4 0 17-7.6 17-17s-7.7-17-17-17h-31.2c-9.3 0-17 7.6-17 17zM276 565.5l-22.1 22c-6.6 6.7-6.7 17.4 0 24.1s17.5 6.6 24.1 0l22.1-22c6.6-6.7 6.7-17.4 0-24.1-6.8-6.7-17.5-6.7-24.1 0z m256.2 0c-6.6-6.6-17.4-6.7-24.1 0-6.6 6.7-6.6 17.5 0.1 24.1l22 22.1c6.7 6.6 17.4 6.7 24.1 0s6.6-17.4 0-24l-22.1-22.2zM404.1 248.9c-9.4 0-17 7.7-17 17v31.3c0 9.3 7.6 17 17 17s17-7.7 17-17V266c-0.1-9.4-7.6-17.1-17-17.1z" fill="#54A8B9" p-id="3553"></path></svg>