<?xml version="1.0" standalone="no"?>
<!DOCTYPE svg PUBLIC "-//W3C//DTD SVG 1.1//EN" "http://www.w3.org/Graphics/SVG/1.1/DTD/svg11.dtd" >
<!--
2013-9-30: Created.
-->
<svg>
<metadata>
Created by iconfont
</metadata>
<defs>

<font id="iconfont" horiz-adv-x="1024" >
  <font-face
    font-family="iconfont"
    font-weight="500"
    font-stretch="normal"
    units-per-em="1024"
    ascent="896"
    descent="-128"
  />
    <missing-glyph />
    
    <glyph glyph-name="download" unicode="&#58977;" d="M526.50076-46.95107900000005c-247.230778 0-447.669856 200.416566-447.669856 447.669856 0 247.252267 200.439078 447.669856 447.669856 447.669856s447.669856-200.416566 447.669856-447.669856S773.731538-46.95107900000005 526.50076-46.95107900000005L526.50076-46.95107900000005zM526.50076 807.161672c-224.471424 0-406.441872-181.971471-406.441872-406.442896S302.029336-5.725142000000005 526.50076-5.725142000000005 932.943656 176.24735199999998 932.943656 400.717753 750.972185 807.161672 526.50076 807.161672L526.50076 807.161672zM548.365744 174.42689099999996c-23.23826-23.216771-32.222889-9.200546-41.422412 0L327.470775 353.91991399999995c-30.645974 30.645974 5.874801 56.735166 30.322609 32.265868l149.149948-156.535149L506.943332 616.2158059999999c0 44.035936 41.422412 39.983643 41.422412 0l0-386.565173 149.148925 156.535149c23.843034 23.864524 66.756403 4.167926 30.322609-32.265868L548.365744 174.42689099999996 548.365744 174.42689099999996z"  horiz-adv-x="1024" />

    
    <glyph glyph-name="fav" unicode="&#58892;" d="M258.133-64c-4.266 0-8.533 2.133-12.8 4.267-6.4 4.266-10.666 12.8-8.533 21.333l42.667 296.533L70.4 462.933c-6.4 6.4-8.533 14.934-6.4 21.334 2.133 8.533 8.533 12.8 17.067 14.933L364.8 548.267 486.4 819.2c4.267 8.533 10.667 12.8 19.2 12.8s14.933-4.267 19.2-12.8l132.267-264.533 283.733-38.4c8.533 0 14.933-6.4 17.067-14.934 2.133-8.533 0-14.933-4.267-21.333L750.933 266.667l4.267-21.334c2.133-10.666-6.4-23.466-17.067-25.6-10.666-2.133-23.466 6.4-25.6 17.067l-6.4 32c-2.133 6.4 0 12.8 6.4 19.2l181.334 192L640 512c-6.4 0-12.8 4.267-17.067 10.667L507.733 761.6l-108.8-241.067c-2.133-6.4-8.533-10.666-14.933-12.8l-253.867-42.666L317.867 281.6c4.266-4.267 6.4-10.667 6.4-19.2l-38.4-264.533 224 128c6.4 4.266 14.933 4.266 21.333 0L759.467 6.4l-6.4 34.133c-2.134 10.667 6.4 23.467 17.066 25.6 10.667 2.134 23.467-6.4 25.6-17.066l14.934-76.8c2.133-8.534-2.134-17.067-8.534-21.334-6.4-4.266-14.933-6.4-23.466-2.133l-256 134.4-251.734-145.067c-6.4-2.133-8.533-2.133-12.8-2.133zM718.933 138.667a32 32 0 1 1 64 0 32 32 0 1 1-64 0z"  horiz-adv-x="1024" />

    
    <glyph glyph-name="recommend" unicode="&#58946;" d="M254.7712 243.30240000000003c-90.5216 0-163.84-64.1024-163.84-143.36s73.3184-143.36 163.84-143.36 163.84 64.1024 163.84 143.36-73.3184 143.36-163.84 143.36z m0-245.76c-67.7888 0-122.88 45.8752-122.88 102.4s55.0912 102.4 122.88 102.4 122.88-45.8752 122.88-102.4-55.0912-102.4-122.88-102.4zM766.7712 366.18240000000003c-90.5216 0-163.84-64.1024-163.84-143.36s73.3184-143.36 163.84-143.36 163.84 64.1024 163.84 143.36-73.3184 143.36-163.84 143.36z m0-245.76c-67.7888 0-122.88 45.8752-122.88 102.4s55.0912 102.4 122.88 102.4 122.88-45.8752 122.88-102.4-55.0912-102.4-122.88-102.4zM398.1312 673.3824a20.48 20.48 0 0 0 20.48-20.48v-532.48a20.48 20.48 0 0 0-40.96 0v532.48a20.48 20.48 0 0 0 20.48 20.48zM912.5888 811.008a20.48 20.48 0 0 0 20.48-20.48v-573.44a20.48 20.48 0 0 0-40.96 0v573.44a20.48 20.48 0 0 0 20.48 20.48zM392.8064 672.768l514.2528 137.8304a20.48 20.48 0 0 0 10.6496-39.5264L403.456 633.2416000000001a20.48 20.48 0 0 0-10.6496 39.5264zM500.5312 496.8448l-107.7248-28.8768a20.48 20.48 0 0 1 10.6496-39.5264l97.0752 26.0096zM932.2496 591.4624a20.48 20.48 0 0 1-24.9856 14.5408L541.4912 506.88v-40.96l376.2176 100.352a20.48 20.48 0 0 1 14.5408 25.1904z"  horiz-adv-x="1024" />

    
    <glyph glyph-name="nowplaying" unicode="&#58947;" d="M143.36 291.63520000000005h122.88a20.48 20.48 0 0 1 0 40.96H143.36a20.48 20.48 0 0 1 0-40.96zM880.64 4.915200000000027H143.36a20.48 20.48 0 0 1 0-40.96h737.28a20.48 20.48 0 0 1 0 40.96zM778.24 803.6351999999999a204.8 204.8 0 0 1-30.9248-2.6624 20.48 20.48 0 0 1-30.5152-15.36l-47.9232-449.1264A189.8496 189.8496 0 0 1 512 414.5152c-102.4 0-184.32-73.3184-184.32-163.84s81.92-163.84 184.32-163.84a184.32 184.32 0 0 1 171.2128 103.424 20.48 20.48 0 0 1 13.5168 16.9984l58.5728 552.96A157.4912 157.4912 0 0 0 778.24 762.6752a163.84 163.84 0 0 0 162.2016-143.36 204.8 204.8 0 0 0 40.96-40.96v20.48a204.8 204.8 0 0 1-203.1616 204.8z m-266.24-675.84c-79.2576 0-143.36 55.0912-143.36 122.88s64.1024 122.88 143.36 122.88 143.36-55.0912 143.36-122.88-64.1024-122.88-143.36-122.88zM143.36 619.3152h450.56a20.48 20.48 0 1 1 0 40.96H143.36a20.48 20.48 0 1 1 0-40.96zM61.44 312.11519999999996m-20.48 0a20.48 20.48 0 1 1 40.96 0 20.48 20.48 0 1 1-40.96 0ZM61.44 639.7952m-20.48 0a20.48 20.48 0 1 1 40.96 0 20.48 20.48 0 1 1-40.96 0ZM61.44-15.564799999999991m-20.48 0a20.48 20.48 0 1 1 40.96 0 20.48 20.48 0 1 1-40.96 0Z"  horiz-adv-x="1024" />

    
    <glyph glyph-name="diamond" unicode="&#58948;" d="M512 834.56a20.48 20.48 0 0 0 20.48-20.48v-81.92a20.48 20.48 0 0 0-40.96 0V814.08a20.48 20.48 0 0 0 20.48 20.48zM266.24 363.52l163.84 266.24h40.96l-163.84-266.24zM757.76 363.52l-163.84 266.24h-40.96l163.84-266.24zM757.76 384L531.2512-46.08000000000004l-26.4192 12.0832L724.992 388.9152zM266.24 384l239.2064-430.08 27.0336 12.0832L305.9712 390.144zM122.88 404.48h778.24a20.48 20.48 0 1 0 0-40.96H122.88a20.48 20.48 0 0 0 0 40.96zM778.24 650.24H245.76L61.44 384l82.7392-82.7392 20.48 20.48L102.4 384l163.84 225.28h491.52l163.84-225.28-409.6-409.6L193.7408 292.65920000000006l-20.48-20.48L512-66.55999999999995l450.56 450.56-184.32 266.24zM747.52 820.6336A20.48 20.48 0 0 0 755.0976 793.6l-40.96-70.8608a20.48 20.48 0 1 0-35.4304 20.48l40.96 70.8608a20.48 20.48 0 0 0 27.8528 6.5536zM276.48 811.8272a18.0224 18.0224 0 0 1-7.5776-25.8048l40.96-65.3312a20.48 20.48 0 0 1 28.0576-6.9632 18.0224 18.0224 0 0 1 7.5776 25.8048l-40.96 65.3312a20.48 20.48 0 0 1-28.0576 6.9632z"  horiz-adv-x="1024" />

    
    <glyph glyph-name="music" unicode="&#58949;" d="M525.312 486.4c-78.0288 13.7216-150.7328-29.2864-162.6112-96.0512s40.96-132.096 119.808-145.8176 150.7328 29.2864 162.6112 96.0512-41.7792 132.7104-119.808 145.8176z m79.4624-138.8544c-7.7824-44.6464-59.392-72.704-115.0976-62.8736S395.264 339.14880000000005 403.2512 384s59.392 72.704 115.0976 62.8736 94.4128-54.0672 86.4256-98.7136zM901.12 514.048a413.9008 413.9008 0 1 0-327.68 274.432 266.24 266.24 0 0 0 5.3248 40.96A450.56 450.56 0 1 1 939.4176 527.36a264.192 264.192 0 0 0-38.2976-13.312zM703.2832 788.48a20.48 20.48 0 0 0 16.5888-23.7568l-71.0656-403.456a20.48 20.48 0 1 0-40.96 7.168l71.0656 403.456a20.48 20.48 0 0 0 24.3712 16.5888zM297.3696 265.01120000000003A163.84 163.84 0 0 0 286.72 322.55999999999995c0 6.7584-40.96 5.12-40.96 0a204.8 204.8 0 0 1 15.5648-78.2336zM450.56 158.72000000000003a163.84 163.84 0 0 0-134.144 70.0416l-35.6352-20.48A204.8 204.8 0 0 1 450.56 117.75999999999999c6.5536 0 3.8912 40.96 0 40.96zM920.1664 581.4272000000001a287.9488 287.9488 0 0 1-42.1888 3.8912 245.76 245.76 0 0 1-189.0304 160.768 286.72 286.72 0 0 1 3.8912 40.96h3.2768a286.72 286.72 0 0 0 225.28-204.8z"  horiz-adv-x="1024" />

    
    <glyph glyph-name="heart" unicode="&#58950;" d="M291.84 453.632h-245.76a20.48 20.48 0 1 1 0-40.96h245.76zM680.96 439.296h-163.84v-40.96h163.84a20.48 20.48 0 1 1 0 40.96zM404.48 568.3199999999999a20.48 20.48 0 0 0 20.48-20.48v-245.76a20.48 20.48 0 0 0-40.96 0V547.8399999999999a20.48 20.48 0 0 0 20.48 20.48zM534.7328 432.5376a20.48 20.48 0 0 0 0-28.8768l-115.9168-115.9168A20.48 20.48 0 0 0 389.12 316.62080000000003l115.9168 115.9168a20.48 20.48 0 0 0 29.696 0zM419.0208 562.3808a20.48 20.48 0 0 0 0-28.8768l-115.9168-115.9168a20.48 20.48 0 0 0-28.8768 28.8768L389.12 562.3808a20.48 20.48 0 0 0 29.9008 0zM239.2064 359.62879999999996l-28.0576-28.0576c9.6256-12.9024 20.48-25.6 30.1056-38.0928l27.8528 27.8528c-10.24 12.6976-20.2752 25.3952-29.9008 38.2976zM894.5664 740.5568000000001c-209.5104 110.3872-348.16-96.256-348.16-96.256S409.6 851.1488 200.704 740.5568000000001c-116.1216-61.44-122.88-159.3344-76.8-264.6016l35.2256 35.2256c-20.48 76.3904-2.4576 146.0224 87.6544 193.1264 163.84 86.4256 301.056-115.5072 301.056-115.5072s120.832 208.896 310.4768 109.7728C1170.432 538.624 547.84 56.32000000000005 547.84 56.32000000000005a1950.3104 1950.3104 0 0 0-251.904 233.6768l-27.8528-27.8528A2303.3856 2303.3856 0 0 1 550.7072-5.1200000000000045S1257.8816 549.0688 894.5664 740.5568000000001z"  horiz-adv-x="1024" />

    
    <glyph glyph-name="apps" unicode="&#58951;" d="M899.8912 322.55999999999995H651.6736a81.92 81.92 0 0 1-81.92-81.92v-245.76a81.92 81.92 0 0 1 81.92-81.92h248.2176a81.92 81.92 0 0 1 81.92 81.92V240.64a81.92 81.92 0 0 1-81.92 81.92z m40.96-327.68a40.96 40.96 0 0 0-40.96-40.96H651.8784a40.96 40.96 0 0 0-40.96 40.96V240.64a40.96 40.96 0 0 0 40.96 40.96h248.2176a40.96 40.96 0 0 0 40.96-40.96zM368.64 322.55999999999995H122.88a81.92 81.92 0 0 1-81.92-81.92v-245.76a81.92 81.92 0 0 1 81.92-81.92h245.76a81.92 81.92 0 0 1 81.92 81.92V240.64a81.92 81.92 0 0 1-81.92 81.92z m40.96-327.68a40.96 40.96 0 0 0-40.96-40.96H122.88a40.96 40.96 0 0 0-40.96 40.96V240.64a40.96 40.96 0 0 0 40.96 40.96h245.76a40.96 40.96 0 0 0 40.96-40.96zM959.6928 686.8992000000001l-144.7936 144.7936a81.92 81.92 0 0 1-115.9168 0l-144.7936-144.7936a81.92 81.92 0 0 1 0-115.9168l144.7936-144.7936a81.92 81.92 0 0 1 115.9168 0l144.7936 144.7936a81.92 81.92 0 0 1 0 115.9168z m-28.4672-86.2208l-144.7936-144.7936a40.96 40.96 0 0 0-57.9584 0l-144.7936 144.7936a40.96 40.96 0 0 0 0 57.9584l144.7936 144.7936a40.96 40.96 0 0 0 57.9584 0l144.7936-144.7936a40.96 40.96 0 0 0 0.2048-57.9584zM409.6 691.2v-204.8a40.96 40.96 0 0 0-40.96-40.96H122.88a40.96 40.96 0 0 0-40.96 40.96V732.16a40.96 40.96 0 0 0 40.96 40.96h245.76a40.96 40.96 0 0 0 40.96-40.96h40.96a81.92 81.92 0 0 1-81.92 81.92H122.88a81.92 81.92 0 0 1-81.92-81.92v-245.76a81.92 81.92 0 0 1 81.92-81.92h245.76a81.92 81.92 0 0 1 81.92 81.92V691.2z"  horiz-adv-x="1024" />

    
    <glyph glyph-name="play" unicode="&#58952;" d="M512 855.04a471.04 471.04 0 1 1 471.04-471.04A471.04 471.04 0 0 1 512 855.04z m0-901.12a430.08 430.08 0 1 0 430.08 430.08 430.08 430.08 0 0 0-430.08-430.08zM555.8272 331.3664L450.56 261.12V506.88l184.32-122.88-42.5984-28.4672 32.1536-22.9376L696.32 384 409.6 588.8v-409.6l179.6096 128.4096-33.3824 23.7568z"  horiz-adv-x="1024" />

    
    <glyph glyph-name="next" unicode="&#58953;" d="M40.96 384A471.04 471.04 0 1 1 512 855.04 471.04 471.04 0 0 1 40.96 384z m40.96 0a430.08 430.08 0 1 0 430.08-430.08A430.08 430.08 0 0 0 81.92 384zM593.92 506.88h40.96v-327.68h-40.96zM593.92 588.8h40.96v-40.96h-40.96zM327.68 588.8v-409.6l286.72 204.8z m40.96-327.68V506.88l184.32-122.88z"  horiz-adv-x="1024" />

    
    <glyph glyph-name="sound" unicode="&#58954;" d="M798.72 384a204.8 204.8 0 0 1-204.8 204.8v-40.96a163.84 163.84 0 0 0 0-327.68v-40.96a204.8 204.8 0 0 1 204.8 204.8zM593.92 732.16v-40.96a307.2 307.2 0 1 0 0-614.4v-40.96a348.16 348.16 0 1 1 0 696.32zM532.48 793.6v2.2528a40.96 40.96 0 0 1-49.3568-6.3488L282.0096 588.8h58.1632l157.2864 157.2864A20.48 20.48 0 0 0 512 752.64v-737.28a20.48 20.48 0 0 0-14.5408 5.9392L340.3776 179.20000000000005H143.36a20.48 20.48 0 0 0-20.48 20.48V568.3199999999999a20.48 20.48 0 0 0 20.48 20.48h138.6496l40.96 40.96H122.88a40.96 40.96 0 0 1-40.96-40.96v-409.6a40.96 40.96 0 0 1 40.96-40.96h200.704l159.3344-159.3344a40.96 40.96 0 0 1 49.3568-6.3488V-25.600000000000023a20.48 20.48 0 0 1 20.48 20.48V773.12A20.48 20.48 0 0 1 532.48 793.6z"  horiz-adv-x="1024" />

    
    <glyph glyph-name="prev" unicode="&#58955;" d="M512 855.04a471.04 471.04 0 1 1 471.04-471.04A471.04 471.04 0 0 1 512 855.04z m0-901.12a430.08 430.08 0 1 0 430.08 430.08 430.08 430.08 0 0 0-430.08-430.08zM389.12 506.88h40.96v-327.68h-40.96zM389.12 588.8h40.96v-40.96h-40.96zM409.6 384l286.72-204.8V588.8z m61.44 0l184.32 122.88v-245.76z"  horiz-adv-x="1024" />

    
    <glyph glyph-name="pause" unicode="&#58956;" d="M512 855.04a471.04 471.04 0 1 1 471.04-471.04A471.04 471.04 0 0 1 512 855.04z m0-901.12a430.08 430.08 0 1 0 430.08 430.08 430.08 430.08 0 0 0-430.08-430.08zM593.92 588.8h40.96v-409.6h-40.96zM389.12 506.88h40.96v-327.68h-40.96zM389.12 588.8h40.96v-40.96h-40.96z"  horiz-adv-x="1024" />

    
    <glyph glyph-name="single-cycle" unicode="&#58957;" d="M81.92 343.03999999999996a245.76 245.76 0 0 0 245.76 245.76h122.88v40.96h-122.88a286.72 286.72 0 1 1 0-573.44h61.44v40.96h-61.44A245.76 245.76 0 0 0 81.92 343.03999999999996zM614.4 629.76v-40.96a245.76 245.76 0 0 0 20.48-490.496v-40.96A286.72 286.72 0 0 1 614.4 629.76zM430.08 97.27999999999997h163.84v-40.96h-163.84zM512 629.76h61.44v-40.96h-61.44zM491.52 302.08000000000004h40.96v-245.76h-40.96zM450.56 302.08000000000004h40.96v-40.96h-40.96zM433.9712 594.7392l-86.8352 86.8352a20.48 20.48 0 0 0 28.8768 28.8768l86.8352-86.8352a20.48 20.48 0 0 0-28.8768-28.8768z"  horiz-adv-x="1024" />

    
    <glyph glyph-name="cycle" unicode="&#58958;" d="M552.96 627.3024h61.44v-40.96h-61.44zM655.36 627.3024v-40.96a245.76 245.76 0 0 0 0-491.52H368.64a245.76 245.76 0 0 0 0 491.52h122.88v40.96h-122.88a286.72 286.72 0 0 1 0-573.44h286.72a286.72 286.72 0 0 1 0 573.44zM474.9312 592.2816l-86.8352 86.8352a20.48 20.48 0 1 0 28.8768 28.8768l86.8352-86.8352a20.48 20.48 0 0 0-28.8768-28.8768zM409.6 483.9424h286.72a20.48 20.48 0 0 0 0-40.96H409.6a20.48 20.48 0 0 0 0 40.96zM409.6 340.5824h286.72a20.48 20.48 0 0 0 0-40.96H409.6a20.48 20.48 0 0 0 0 40.96zM409.6 217.7024h286.72a20.48 20.48 0 1 0 0-40.96H409.6a20.48 20.48 0 0 0 0 40.96zM327.68 483.9424a20.48 20.48 0 1 0-20.48-20.48 20.48 20.48 0 0 0 20.48 20.48zM327.68 340.5824a20.48 20.48 0 1 0-20.48-20.48 20.48 20.48 0 0 0 20.48 20.48zM327.68 217.7024a20.48 20.48 0 1 0-20.48-20.48 20.48 20.48 0 0 0 20.48 20.48z"  horiz-adv-x="1024" />

    
    <glyph glyph-name="search" unicode="&#58959;" d="M675.84 697.9584a348.16 348.16 0 1 1 0-491.52 348.16 348.16 0 0 1 0 491.52z m-28.8768-463.2576a307.2 307.2 0 1 0 0 434.3808 307.2 307.2 0 0 0 0-434.3808zM675.84 234.70079999999996a20.48 20.48 0 0 0 28.8768 0l231.8336-231.8336A20.48 20.48 0 1 0 907.4688-25.600000000000023L675.84 205.61919999999998a20.48 20.48 0 0 0 0 29.0816zM574.464 596.5824zM574.464 306.99519999999995v0.2048-0.2048zM266.24 460.3904h-40.96a206.6432 206.6432 0 0 1 5.9392-59.392l39.5264 10.6496a165.2736 165.2736 0 0 0-4.5056 48.7424zM284.8768 596.5824a202.3424 202.3424 0 0 1-53.6576-95.4368h42.5984a162.2016 162.2016 0 0 0 193.3312 109.568l10.6496 39.5264a204.8 204.8 0 0 1-192.9216-53.6576z"  horiz-adv-x="1024" />

    
    <glyph glyph-name="random" unicode="&#58960;" d="M747.52 586.5472a245.76 245.76 0 0 1-245.76-245.76v-14.7456c-15.7696-38.912-17.408-56.7296-29.2864-68.1984a286.72 286.72 0 0 0-257.4336-162.816h-20.48v40.96h20.48a245.76 245.76 0 0 1 239.2064 190.2592c2.4576 3.6864 4.5056 7.5776 6.7584 11.264s0 2.048 0 3.2768a286.72 286.72 0 0 0 286.72 286.72h61.44v-40.96zM794.4192 174.4896l-87.04-86.2208a20.48 20.48 0 0 1 0-28.672 20.48 20.48 0 0 1 29.0816 0l87.04 86.2208a20.48 20.48 0 0 1 0 28.672 20.48 20.48 0 0 1-29.0816 0zM792.576 592.4864l-86.8352 86.8352a20.48 20.48 0 1 0 28.8768 28.8768l86.8352-86.8352a20.48 20.48 0 0 0-28.8768-28.8768zM749.1584 180.42880000000002A245.76 245.76 0 0 0 502.784 424.96v14.7456c-15.7696 38.5024-17.6128 56.32-29.2864 67.7888a286.72 286.72 0 0 1-197.632 155.0336v-40.96a245.76 245.76 0 0 0 178.7904-181.248c2.4576-3.6864 4.5056-7.5776 6.7584-11.264s0-2.048 0-3.072a286.72 286.72 0 0 1 286.72-284.672h61.44v40.96zM235.52 667.648h-40.96v-40.96h40.96z"  horiz-adv-x="1024" />

    
    <glyph glyph-name="edit" unicode="&#58961;" d="M733.3888 687.9232a81.92 81.92 0 0 1-115.9168 0L241.0496 312.7296 184.32 138.24l172.4416 59.1872L733.3888 572.4159999999999a81.92 81.92 0 0 1 0 115.5072z m-28.8768-86.6304L327.68 226.0992l-86.8352-28.8768 28.8768 86.6304 376.832 375.1936a40.96 40.96 0 1 0 57.9584-57.7536zM588.5952 659.0464l28.8768 28.8768 115.9168-115.5072-28.8768-28.8768zM241.0496 312.7296l28.8768 28.8768 115.9168-115.5072-28.8768-28.8768zM839.68 97.27999999999997H245.76v-40.96h593.92a20.48 20.48 0 0 1 0 40.96zM204.8 97.27999999999997H184.32a20.48 20.48 0 0 1 0-40.96h20.48z"  horiz-adv-x="1024" />

    
    <glyph glyph-name="me" unicode="&#58962;" d="M159.9488 92.77440000000001a243.3024 243.3024 0 0 1-12.9024-46.6944h40.96a203.1616 203.1616 0 0 0 11.0592 36.2496zM677.0688 246.98879999999997a266.24 266.24 0 1 1-330.1376 0 245.76 245.76 0 0 1-168.96-116.5312l40.96-11.0592A204.8 204.8 0 0 0 389.12 209.91999999999996h40.96v36.0448a225.28 225.28 0 0 0-51.2 28.2624l-2.6624 2.048a225.28 225.28 0 0 0-30.5152 27.8528l-3.8912 4.3008-7.168 8.8064-4.9152 6.5536-5.9392 8.3968q-4.7104 6.9632-8.8064 14.336l-3.6864 6.9632c-1.8432 3.4816-3.4816 7.168-5.12 10.8544l-3.072 7.168a179.2 179.2 0 0 0-4.9152 13.5168l-1.6384 4.7104c-1.8432 6.144-3.4816 12.4928-4.9152 18.8416 0 1.8432 0 3.6864-1.024 5.5296q-1.4336 7.3728-2.2528 15.1552v5.9392c0 6.7584-1.024 13.7216-1.024 20.48a225.28 225.28 0 0 0 202.3424 224.0512 228.7616 228.7616 0 0 0 46.08 0A225.28 225.28 0 0 0 655.36 629.76a225.28 225.28 0 0 0 50.5856-59.392 223.4368 223.4368 0 0 0 30.3104-91.3408A227.9424 227.9424 0 0 0 737.28 455.68c0-6.9632 0-13.7216-1.024-20.48v-5.9392c0-1.8432-1.4336-10.0352-2.2528-14.9504s0-3.8912-1.024-5.7344c-1.4336-6.3488-2.8672-12.6976-4.9152-18.8416l-1.6384-4.7104c-1.4336-4.5056-3.072-9.0112-4.9152-13.5168L716.8 363.52c-1.6384-3.6864-3.2768-7.168-5.12-10.6496l-3.6864-7.168q-4.096-7.3728-8.8064-14.336l-5.9392-8.3968-4.7104-6.3488-7.168-8.8064-3.8912-4.3008a225.28 225.28 0 0 0-30.5152-28.0576l-2.6624-2.048A225.28 225.28 0 0 0 593.92 245.96479999999997v-36.0448h40.96a204.8 204.8 0 0 0 200.704-163.84h40.96a245.76 245.76 0 0 1-199.4752 200.9088z"  horiz-adv-x="1024" />

    
    <glyph glyph-name="device" unicode="&#58963;" d="M860.16 711.6800000000001H163.84a122.88 122.88 0 0 1-122.88-122.88v-40.96a122.88 122.88 0 0 1 122.88-122.88h696.32a122.88 122.88 0 0 1 122.88 122.88v40.96a122.88 122.88 0 0 1-122.88 122.88z m81.92-163.84a81.92 81.92 0 0 0-81.92-81.92H163.84a81.92 81.92 0 0 0-81.92 81.92v40.96a81.92 81.92 0 0 0 81.92 81.92h696.32a81.92 81.92 0 0 0 81.92-81.92zM860.16 343.03999999999996H163.84a122.88 122.88 0 0 1-122.88-122.88v-40.96a122.88 122.88 0 0 1 122.88-122.88h696.32a122.88 122.88 0 0 1 122.88 122.88v40.96a122.88 122.88 0 0 1-122.88 122.88z m81.92-163.84a81.92 81.92 0 0 0-81.92-81.92H163.84a81.92 81.92 0 0 0-81.92 81.92v40.96a81.92 81.92 0 0 0 81.92 81.92h696.32a81.92 81.92 0 0 0 81.92-81.92zM184.32 629.76a61.44 61.44 0 1 1 61.44-61.44 61.44 61.44 0 0 1-61.44 61.44z m0-81.92a20.48 20.48 0 1 0 20.48 20.48 20.48 20.48 0 0 0-20.48-20.48zM839.68 261.12a61.44 61.44 0 1 1 61.44-61.44 61.44 61.44 0 0 1-61.44 61.44z m0-81.92a20.48 20.48 0 1 0 20.48 20.48 20.48 20.48 0 0 0-20.48-20.48zM204.8 281.6a81.92 81.92 0 0 1-79.0528-102.4h43.8272A40.96 40.96 0 0 0 163.84 199.67999999999995a40.96 40.96 0 0 0 40.96 40.96h81.92v40.96zM860.16 568.3199999999999a40.96 40.96 0 0 0-5.7344-20.48h43.8272A81.92 81.92 0 0 1 819.2 650.24v-40.96a40.96 40.96 0 0 0 40.96-40.96zM737.28 650.24h40.96v-40.96h-40.96z"  horiz-adv-x="1024" />

    
    <glyph glyph-name="favlist" unicode="&#58964;" d="M143.36 404.48h286.72a20.48 20.48 0 0 0 0-40.96H143.36a20.48 20.48 0 0 0 0 40.96zM491.52-5.1200000000000045H122.88a40.96 40.96 0 0 0-40.96 40.96V773.12a40.96 40.96 0 0 0 40.96 40.96h614.4a40.96 40.96 0 0 0 40.96-40.96v-389.12h40.96V773.12a81.92 81.92 0 0 1-81.92 81.92H122.88a81.92 81.92 0 0 1-81.92-81.92v-737.28a81.92 81.92 0 0 1 81.92-81.92h368.64zM163.84 588.8H143.36a20.48 20.48 0 0 1 0-40.96h20.48zM716.8 588.8H204.8v-40.96h512a20.48 20.48 0 0 1 0 40.96zM889.856 321.53599999999994c-105.0624 63.8976-173.2608-57.344-173.2608-57.344s-68.4032 121.0368-173.2608 57.344c-182.0672-110.592 175.104-369.8688 175.104-369.8688s353.4848 259.072 171.4176 369.8688zM716.8 27.443200000000047s-257.4336 180.8384-150.1184 243.0976c81.92 47.9232 149.504-84.7872 149.504-84.7872s44.2368 132.7104 148.6848 86.8352C962.56 212.99199999999996 716.8 27.443200000000047 716.8 27.443200000000047z"  horiz-adv-x="1024" />

    
    <glyph glyph-name="playlist" unicode="&#58965;" d="M204.8 343.03999999999996h204.8a20.48 20.48 0 0 0 0-40.96H204.8a20.48 20.48 0 0 0 0 40.96zM143.36-25.600000000000023a40.96 40.96 0 0 0-40.96 40.96V752.64a40.96 40.96 0 0 0 40.96 40.96h614.4a40.96 40.96 0 0 0 40.96-40.96v-327.68h40.96V752.64a81.92 81.92 0 0 1-81.92 81.92H143.36a81.92 81.92 0 0 1-81.92-81.92v-737.28a81.92 81.92 0 0 1 81.92-81.92h327.68v40.96zM737.28 384a225.28 225.28 0 1 1 225.28-225.28 225.28 225.28 0 0 1-225.28 225.28z m0-409.6a184.32 184.32 0 1 0 184.32 184.32 184.32 184.32 0 0 0-184.32-184.32zM771.2768 235.3152Q634.88 311.9104 634.88 158.72000000000003t136.6016-76.5952q136.192 76.5952-0.2048 153.1904z m-13.5168-122.88Q675.84 66.55999999999995 675.84 158.72000000000003t81.92 46.08q81.92-46.08 0-92.16zM225.28 588.8h-20.48a20.48 20.48 0 0 1 0-40.96h20.48zM696.32 588.8H266.24v-40.96h430.08a20.48 20.48 0 0 1 0 40.96z"  horiz-adv-x="1024" />

    
    <glyph glyph-name="alarm" unicode="&#59148;" d="M102.4 670.72c5.12 0 10.24 2.048 14.336 6.144l102.4 102.4c8.192 8.192 8.192 20.992 0 29.184-8.192 8.192-20.992 8.192-29.184 0l-102.4-102.4c-8.192-8.192-8.192-20.992 0-29.184 4.608-4.096 9.728-6.144 14.848-6.144zM907.264 676.864c4.096-4.096 9.216-6.144 14.336-6.144s10.24 2.048 14.336 6.144c8.192 8.192 8.192 20.992 0 29.184l-102.4 102.4c-8.192 8.192-20.992 8.192-29.184 0-8.192-8.192-8.192-20.992 0-29.184l102.912-102.4zM942.08 384c0 237.056-193.024 430.08-430.08 430.08s-430.08-193.024-430.08-430.08c0-137.216 64.512-259.584 165.376-338.432l-56.832-56.832c-8.192-8.192-8.192-20.992 0-29.184 4.096-3.584 9.216-5.632 14.336-5.632s10.24 2.048 14.336 6.144l61.44 61.44c66.56-42.496 145.92-67.584 230.912-67.584 78.336 0 151.552 20.992 214.528 57.856l81.408-54.272c3.584-2.56 7.68-3.584 11.264-3.584 6.656 0 13.312 3.072 16.896 9.216 6.144 9.216 3.584 22.016-5.632 28.16l-66.56 44.544c108.544 78.336 178.688 205.312 178.688 348.16z m-223.744-329.728c-1.536-0.512-2.56-1.536-4.096-2.56-58.88-35.84-128-56.832-202.24-56.832-214.528 0-389.12 174.592-389.12 389.12s174.592 389.12 389.12 389.12 389.12-174.592 389.12-389.12c0-138.752-73.216-261.12-182.784-329.728zM702.464 603.136l-119.296-119.296C563.2 498.176 538.624 506.88 512 506.88c-26.624 0-51.2-8.704-71.168-22.528L372.736 551.9359999999999c-8.192 8.192-20.992 8.192-29.184 0-8.192-8.192-8.192-20.992 0-29.184l68.096-68.096C397.824 435.2 389.12 410.624 389.12 384c0-67.584 55.296-122.88 122.88-122.88s122.88 55.296 122.88 122.88c0 26.624-8.704 51.2-22.528 71.168l119.296 119.296c8.192 8.192 8.192 20.992 0 29.184-8.192 7.68-21.504 7.68-29.184-0.512zM512 302.08000000000004c-45.056 0-81.92 36.864-81.92 81.92s36.864 81.92 81.92 81.92 81.92-36.864 81.92-81.92-36.864-81.92-81.92-81.92z"  horiz-adv-x="1024" />

    
    <glyph glyph-name="backward" unicode="&#58903;" d="M3.541754 451.581708h46.64599v0.118412C83.182487 702.040646 297.914741 895.890046 557.170023 896 839.135092 896 1068.596992 666.656513 1068.596992 384.682985c0-281.973527-229.4619-511.317015-511.426969-511.317014-58.681755 0-114.843019 10.39068-167.358876 28.655777-33.447247 42.759529 17.579998 49.542862 17.579998 49.542862 47.035059-16.323982 97.263021-25.572829 149.778878-25.572828 253.089383 0 459.139479 205.711775 459.139478 458.581249 0 252.856788-205.940141 458.572791-459.139478 458.572791-230.375366 0-421.708504-170.437595-454.356468-391.564114h46.544493s4.973317-1.28139 3.230965-6.043257l-73.161888-122.907742s-2.753086-4.102141-5.94176 0L0.247355 445.37352c-1.32368 5.552691 3.294399 6.208188 3.294399 6.208188zM372.210004 235.82603200000005c0-10.060817-6.19973-15.09334-18.590732-15.093339-12.720865 0-19.081297 5.032523-19.081297 15.093339V502.456708h-22.01623c-5.548462 0-9.464526 1.061482-11.739734 3.201362-2.287895 2.127192-3.425499 6.702982-3.425499 13.718911 0 7.0117 1.298306 11.811627 3.911835 14.40824 2.6093 2.588155 6.681837 3.886461 12.234528 3.886461h33.755965c16.6327 0 24.951164-6.102463 24.951164-18.294701v-283.550949zM507.732886 420.134783c7.827899 1.522444 14.91995 2.664277 21.280382 3.429728 6.360432 0.756993 13.773888 1.146062 22.261513 1.146062 15.655798 0 29.84413-2.364017 42.564995-7.087822 12.720865-4.732263 23.483697-11.363352 32.288497-19.893267 8.80903-8.542602 15.655798-18.907908 20.548764-31.100146 4.892966-12.196467 7.337334-25.767363 7.337334-40.704229a102.807254 102.807254 0 0 0-8.073182-40.247497 101.948765 101.948765 0 0 0-22.747849-33.612178c-9.785931-9.604084-21.364963-17.22899-34.737095-22.866262-13.38059-5.637271-27.886098-8.462251-43.541896-8.46225-10.441428 0-19.812916 0.913466-28.13138 2.744628s-15.824959 4.415087-22.506796 7.772922a103.657285 103.657285 0 0 0-18.345449 11.663612 149.102236 149.102236 0 0 0-15.655798 14.40824c-3.911835 3.958354-5.624584 8.534144-5.134019 13.718911 0.490565 5.180538 2.364017 9.44761 5.624584 12.805445 2.6093 2.440139 5.950218 3.886461 10.031214 4.347423 4.076766 0.456733 7.904021-1.146062 11.498681-4.804157 9.126205-10.060817 19.32658-17.457357 30.575748-22.181162 11.253398-4.732263 21.770948-7.087822 31.556879-7.087822 10.107336 0 19.487282 1.979177 28.13138 5.94599 8.63564 3.958354 16.142134 9.219244 22.502567 15.778439 6.360432 6.550738 11.4141 14.247538 15.165233 23.094628a69.64758 69.64758 0 0 1 5.628813 27.442052c0 20.121634-5.713394 36.12844-17.123265 48.020418-11.422558 11.891979-28.055258 17.837968-49.902328 17.837968-8.80903 0-16.070241-0.617436-21.770948-1.831162-5.709165-1.222184-10.68671-2.516261-14.91995-3.886461-4.241698-1.374429-8.157762-2.596613-11.739734-3.658094-3.594659-1.06994-7.506494-1.598566-11.743963-1.598567-7.176631 0-12.39946 2.055299-15.655798 6.174356-3.264796 4.114828-4.406629 8.914755-3.425499 14.404011l20.058198 113.878804c1.628169 7.925166 3.916064 13.562438 6.850998 16.920273 2.934934 3.349377 8.63564 5.032523 17.123265 5.032523h115.460454c10.107336 0 15.165233-5.645729 15.165233-16.920273 0-10.978512-5.062126-16.463539-15.165233-16.463539h-105.678752l-15.655798-84.161545zM787.790671 244.27559599999995c11.189963 0 20.688321 2.909559 28.503533 8.741365 7.810983 5.823348 11.718589 13.291781 11.718589 22.384155 0 4.199408-0.64281 7.870189-1.9242 11.016573-1.285619 3.146384-3.615804 6.060173-6.994783 8.741366-3.383209 2.676964-8.107014 5.248202-14.167187 7.696799-6.064402 2.448597-13.875385 4.947943-23.432949 7.519182-9.794389 2.562781-18.248182 5.248202-25.357149 8.043578-7.117425 2.799605-12.999979 6.060173-17.664578 9.794389-4.668828 3.725759-8.107014 8.216968-10.318787 13.465171-2.216002 5.243973-3.324003 11.718589-3.324002 19.41116 0 7.925166 1.628169 15.042592 4.897194 21.335359a48.202266 48.202266 0 0 0 13.465171 16.091387c5.709165 4.427774 12.35717 7.810983 19.935557 10.141168 7.574158 2.325956 15.681172 3.497392 24.308354 3.497392 9.092373 0 17.368548-0.993818 24.832752-2.972995 7.459975-1.983406 13.871156-4.49121 19.23777-7.519181 5.362386-3.032201 9.557565-6.24202 12.593995-9.616771 3.027972-3.383209 4.546187-6.588799 4.546186-9.616771 0-3.729988-0.820428-7.22738-2.448597-10.492175-1.632398-3.269025-4.31782-4.897195-8.043579-4.897195-1.632398 0-3.264796 0.638581-4.897194 1.9242a251.051 251.051 0 0 0-6.994784 5.7726c-5.366615 4.199408-10.729001 7.574158-16.087157 10.141168-5.366615 2.562781-12.940773 3.962583-22.735163 4.199408-4.668828 0-9.155808-0.524397-13.46517-1.577422a36.500593 36.500593 0 0 1-11.718589-5.070584 28.072174 28.072174 0 0 1-8.394587-8.567976c-2.097589-3.383209-3.150613-7.404998-3.150613-12.069596 0-4.195179 0.756993-7.641823 2.275208-10.318787 1.513986-2.681193 4.076766-5.12979 7.6968-7.345792 3.611575-2.216002 8.394587-4.31782 14.340575-6.292768 5.945989-1.983406 13.465171-4.258614 22.557544-6.821394a299.244808 299.244808 0 0 0 22.384155-7.519182c6.994784-2.681193 13.054956-6.068631 18.184746-10.141168a44.459591 44.459591 0 0 0 12.069597-14.691583c2.909559-5.717623 4.372797-12.885796 4.372798-21.50875 0-8.631411-1.983406-16.438165-5.94599-23.432949a57.67525 57.67525 0 0 0-15.740378-17.837967 76.333646 76.333646 0 0 0-21.859757-11.367582 77.615036 77.615036 0 0 0-24.659362-4.021789c-9.794389 0-18.772579 1.285619-26.930341 3.8484-8.16622 2.56701-15.101798 5.713394-20.810963 9.443381-5.717623 3.725759-10.141168 7.519181-13.291781 11.367581-3.146384 3.8484-4.719576 7.049761-4.719576 9.616771 0 2.799605 0.702016 5.945989 2.097589 9.443381 1.399803 3.497392 3.962583 5.125561 7.692571 4.897195 2.330185 0 4.774553-1.344825 7.345792-4.02179 2.562781-2.685422 5.886783-5.544233 9.967778-8.567976 4.076766-3.032201 9.324969-5.831806 15.740379-8.394586 6.41118-2.571239 14.518194-3.8484 24.312583-3.8484z"  horiz-adv-x="1073" />

    
    <glyph glyph-name="forward" unicode="&#58905;" d="M1065.055237 451.581708h-46.645989v0.118412C985.414505 702.040646 770.68225 895.890046 511.426969 896 229.4619 896 0 666.656513 0 384.682985c0-281.973527 229.4619-511.317015 511.426969-511.317014 58.681755 0 114.843019 10.39068 167.358875 28.655777 33.447247 42.759529-17.579998 49.542862-17.579998 49.542862-47.035059-16.323982-97.263021-25.572829-149.778877-25.572828-253.089383 0-459.139479 205.711775-459.139479 458.581249 0 252.856788 205.940141 458.572791 459.139479 458.572791 230.375366 0 421.708504-170.437595 454.356468-391.564114h-46.544494s-4.973317-1.28139-3.230964-6.043257l73.166117-122.907742s2.753086-4.102141 5.94176 0l73.23801 122.742811c1.315222 5.552691-3.298628 6.208188-3.298629 6.208188zM329.909365 235.82603200000005c0-10.060817-6.19973-15.09334-18.590731-15.093339-12.720865 0-19.081297 5.032523-19.081297 15.093339V502.456708h-22.016231c-5.548462 0-9.464526 1.061482-11.739734 3.201362-2.287895 2.127192-3.425499 6.702982-3.425499 13.718911 0 7.0117 1.298306 11.811627 3.911835 14.40824 2.6093 2.588155 6.681837 3.886461 12.234529 3.886461h33.755964c16.6327 0 24.951164-6.102463 24.951164-18.294701v-283.550949zM465.432247 420.134783c7.827899 1.522444 14.91995 2.664277 21.280383 3.429728 6.360432 0.756993 13.773888 1.146062 22.261513 1.146062 15.655798 0 29.84413-2.364017 42.564994-7.087822 12.720865-4.732263 23.483697-11.363352 32.288498-19.893267 8.80903-8.542602 15.655798-18.907908 20.548763-31.100146 4.892966-12.196467 7.337334-25.767363 7.337334-40.704229a102.807254 102.807254 0 0 0-8.073181-40.247497 101.948765 101.948765 0 0 0-22.74785-33.612178c-9.785931-9.604084-21.364963-17.22899-34.737095-22.866262-13.38059-5.637271-27.886098-8.462251-43.541896-8.46225-10.441428 0-19.812916 0.913466-28.13138 2.744628s-15.824959 4.415087-22.506795 7.772922a103.657285 103.657285 0 0 0-18.34545 11.663612 149.102236 149.102236 0 0 0-15.655798 14.40824c-3.911835 3.958354-5.624584 8.534144-5.134019 13.718911 0.490565 5.180538 2.364017 9.44761 5.624585 12.805445 2.6093 2.440139 5.950218 3.886461 10.031213 4.347423 4.076766 0.456733 7.904021-1.146062 11.498681-4.804157 9.126205-10.060817 19.32658-17.457357 30.575748-22.181162 11.253398-4.732263 21.770948-7.087822 31.556879-7.087822 10.107336 0 19.487282 1.979177 28.13138 5.94599 8.63564 3.958354 16.142134 9.219244 22.502567 15.778439 6.360432 6.550738 11.4141 14.247538 15.165233 23.094628a69.64758 69.64758 0 0 1 5.628813 27.442052c0 20.121634-5.713394 36.12844-17.123265 48.020418-11.422558 11.891979-28.055258 17.837968-49.902328 17.837968-8.80903 0-16.070241-0.617436-21.770947-1.831162-5.709165-1.222184-10.68671-2.516261-14.919951-3.886461-4.241698-1.374429-8.157762-2.596613-11.739734-3.658094-3.594659-1.06994-7.506494-1.598566-11.743963-1.598567-7.176631 0-12.39946 2.055299-15.655798 6.174356-3.264796 4.114828-4.406629 8.914755-3.425499 14.404011l20.058199 113.878804c1.628169 7.925166 3.916064 13.562438 6.850997 16.920273 2.934934 3.349377 8.63564 5.032523 17.123265 5.032523h115.460454c10.107336 0 15.165233-5.645729 15.165233-16.920273 0-10.978512-5.062126-16.463539-15.165233-16.463539h-105.678752l-15.655798-84.161545zM745.490033 244.27559599999995c11.189963 0 20.688321 2.909559 28.503533 8.741365 7.810983 5.823348 11.718589 13.291781 11.718589 22.384155 0 4.199408-0.64281 7.870189-1.9242 11.016573-1.285619 3.146384-3.615804 6.060173-6.994784 8.741366-3.383209 2.676964-8.107014 5.248202-14.167187 7.696799-6.064402 2.448597-13.875385 4.947943-23.432949 7.519182-9.794389 2.562781-18.248182 5.248202-25.357149 8.043578-7.117425 2.799605-12.999979 6.060173-17.664578 9.794389-4.668828 3.725759-8.107014 8.216968-10.318786 13.465171-2.216002 5.243973-3.324003 11.718589-3.324003 19.41116 0 7.925166 1.628169 15.042592 4.897195 21.335359a48.202266 48.202266 0 0 0 13.46517 16.091387c5.709165 4.427774 12.35717 7.810983 19.935557 10.141168 7.574158 2.325956 15.681172 3.497392 24.308355 3.497392 9.092373 0 17.368548-0.993818 24.832751-2.972995 7.459975-1.983406 13.871156-4.49121 19.237771-7.519181 5.362386-3.032201 9.557565-6.24202 12.593994-9.616771 3.027972-3.383209 4.546187-6.588799 4.546187-9.616771 0-3.729988-0.820428-7.22738-2.448598-10.492175-1.632398-3.269025-4.31782-4.897195-8.043578-4.897195-1.632398 0-3.264796 0.638581-4.897195 1.9242a251.051 251.051 0 0 0-6.994784 5.7726c-5.366615 4.199408-10.729001 7.574158-16.087157 10.141168-5.366615 2.562781-12.940773 3.962583-22.735162 4.199408-4.668828 0-9.155808-0.524397-13.465171-1.577422a36.500593 36.500593 0 0 1-11.718589-5.070584 28.072174 28.072174 0 0 1-8.394587-8.567976c-2.097589-3.383209-3.150613-7.404998-3.150613-12.069596 0-4.195179 0.756993-7.641823 2.275208-10.318787 1.513986-2.681193 4.076766-5.12979 7.6968-7.345792 3.611575-2.216002 8.394587-4.31782 14.340576-6.292768 5.945989-1.983406 13.465171-4.258614 22.557544-6.821394a299.244808 299.244808 0 0 0 22.384154-7.519182c6.994784-2.681193 13.054956-6.068631 18.184747-10.141168a44.459591 44.459591 0 0 0 12.069597-14.691583c2.909559-5.717623 4.372797-12.885796 4.372797-21.50875 0-8.631411-1.983406-16.438165-5.945989-23.432949a57.67525 57.67525 0 0 0-15.740379-17.837967 76.333646 76.333646 0 0 0-21.859757-11.367582 77.615036 77.615036 0 0 0-24.659362-4.021789c-9.794389 0-18.772579 1.285619-26.930341 3.8484-8.16622 2.56701-15.101798 5.713394-20.810963 9.443381-5.717623 3.725759-10.141168 7.519181-13.291781 11.367581-3.146384 3.8484-4.719576 7.049761-4.719576 9.616771 0 2.799605 0.702016 5.945989 2.09759 9.443381 1.399803 3.497392 3.962583 5.125561 7.69257 4.897195 2.330185 0 4.774553-1.344825 7.345792-4.02179 2.562781-2.685422 5.886783-5.544233 9.967779-8.567976 4.076766-3.032201 9.324969-5.831806 15.740378-8.394586 6.41118-2.571239 14.518194-3.8484 24.312584-3.8484z"  horiz-adv-x="1073" />

    
    <glyph glyph-name="arrow" unicode="&#58966;" d="M543.744 248.32000000000005c-7.168-7.168-16.896-13.824-26.112-11.776-9.216-1.536-17.92 5.632-25.088 11.776L270.848 471.04c-11.264 11.264-11.264 29.696 0 40.96s29.696 11.264 40.96 0l206.336-211.968L724.992 512c11.264 11.264 29.696 11.264 40.96 0s11.264-29.696 0-40.96L543.744 248.32000000000005z"  horiz-adv-x="1024" />

    
    <glyph glyph-name="return" unicode="&#58971;" d="M736-64c-9 0-18.1 3.2-25 9.6L263 360.79999999999995c-13.8 12.8-13.8 33.6 0 46.4L711 822.4c13.8 12.8 36.2 12.8 50 0 13.8-12.8 13.8-33.6 0-46.4L338 384l423-392c13.8-12.8 13.8-33.6 0-46.4-6.9-6.4-16-9.6-25-9.6z"  horiz-adv-x="1024" />

    


  </font>
</defs>
</svg>
