<?xml version="1.0" standalone="no"?><!DOCTYPE svg PUBLIC "-//W3C//DTD SVG 1.1//EN" "http://www.w3.org/Graphics/SVG/1.1/DTD/svg11.dtd">
<svg t="1558202185611" class="icon" style="" viewBox="0 0 1024 1024" version="1.1" 
  xmlns="http://www.w3.org/2000/svg" p-id="1570" 
  xmlns:xlink="http://www.w3.org/1999/xlink" width="128" height="128">
  <defs>
    <style type="text/css"></style>
  </defs>
  <path d="M230.94650339 376.63631918h562.10699322a70.26337436 70.26337436 0 0 1 70.26337436 70.26337435v351.31687097a70.26337436 70.26337436 0 0 1-70.26337436 70.26337436H230.94650339a70.26337436 70.26337436 0 0 1-70.26337436-70.26337436V446.89969354a70.26337436 70.26337436 0 0 1 70.26337436-70.26337436z m421.58024533 386.44855856a140.52674872 140.52674872 0 1 0 0-281.05349743 140.52674872 140.52674872 0 0 0 0 281.05349743z" fill="#e6e6e6" opacity=".3" p-id="1571"></path>
  <path d="M814.80001083 380.07922457A70.19311074 70.19311074 0 0 0 793.05349661 376.63631918h-98.33359213L371.92996393 196.51615923A35.13168677 35.13168677 0 1 1 406.14822705 135.17623378l390.84001858 218.06238209a35.09655578 35.09655578 0 0 1 17.81176521 26.8406087zM652.52674872 692.82150339a70.26337436 70.26337436 0 1 0 1e-8-140.52674873 70.26337436 70.26337436 0 0 0 0 140.52674873z" fill="#cdcdcd" p-id="1572"></path>
  <path d="M230.94650339 517.16306789m35.13168676 0l105.39506113 0q35.13168677 0 35.13168759 35.13168677l0 0q0 35.13168677-35.13168759 35.1316876l-105.39506113 0q-35.13168677 0-35.13168676-35.1316876l0 0q0-35.13168677 35.13168676-35.13168677Z" fill="#dbdbdb" opacity=".3" p-id="1573"></path>
  <path d="M230.94650339 657.68981579m35.13168676 0l105.39506113 0q35.13168677 0 35.13168759 35.1316876l0 0q0 35.13168677-35.13168759 35.13168676l-105.39506113 0q-35.13168677 0-35.13168676-35.13168676l0 0q0-35.13168677 35.13168676-35.1316876Z" fill="#dbdbdb" opacity=".3" p-id="1574"></path>
</svg>